<svg xmlns="http://www.w3.org/2000/svg" viewBox="0 0 900 520" fill="none">
  <title>FCCU onboarding residency illustration</title>
  <desc>Monochrome human line illustration: person with map and location pin, residency selection.</desc>
  <g stroke="#111827" stroke-width="6" stroke-linecap="round" stroke-linejoin="round">
    <!-- Person -->
    <path d="M160 170c0-34 26-60 60-60s60 26 60 60-26 60-60 60-60-26-60-60z"/>
    <path d="M130 340c26-44 66-66 120-66s94 22 120 66"/>
    <path d="M220 262v90"/>
    <path d="M188 476l32-96h20l32 96"/>
    <!-- Map -->
    <path d="M430 170l120-40 120 40 120-40v260l-120 40-120-40-120 40V170z"/>
    <path d="M550 130v260"/>
    <path d="M670 170v260"/>
    <!-- Location pin -->
    <path d="M610 240c0-28 22-50 50-50s50 22 50 50c0 44-50 94-50 94s-50-50-50-94z"/>
    <path d="M644 240c0-10 8-18 16-18s16 8 16 18-8 18-16 18-16-8-16-18z"/>
    <!-- Cayman / offshore hint waves -->
    <path d="M70 486c60-46 116-46 168 0s108 46 160 0 108-46 160 0"/>
  </g>
</svg>



